Coordinates
version=1
nRows=7
nColumns=38
inDegrees=yes

Units are S.I. units (second, meters, Newtons, ...)
Angles are in degrees.

endheader
time	pelvis_tilt	pelvis_list	pelvis_rotation	pelvis_tx	pelvis_ty	pelvis_tz	hip_flexion_r	hip_adduction_r	hip_rotation_r	knee_angle_r	ankle_angle_r	subtalar_angle_r	mtp_angle_r	hip_flexion_l	hip_adduction_l	hip_rotation_l	knee_angle_l	ankle_angle_l	subtalar_angle_l	mtp_angle_l	lumbar_extension	lumbar_bending	lumbar_rotation	arm_flex_r	arm_add_r	arm_rot_r	elbow_flex_r	pro_sup_r	wrist_flex_r	wrist_dev_r	arm_flex_l	arm_add_l	arm_rot_l	elbow_flex_l	pro_sup_l	wrist_flex_l	wrist_dev_l
      1.84000000	     -1.28180163	      2.66066056	     -5.21412168	      0.72420502	      0.93981811	     -0.25048007	     -5.92311003	     -4.42217298	     -9.88164245	    -33.74923924	     15.93605248	      8.58294807	      0.00000000	     27.58702584	      1.05964959	    -14.60909372	    -18.46274143	      5.11374108	     -6.31057198	      0.00000000	     -2.51593260	     -4.82983685	      1.81099522	     15.80537449	     -8.62678764	     48.04198792	     32.54805920	     43.05820503	      0.00000000	      0.00000000	     -3.85715962	     -8.73760089	     43.54480058	     18.56570169	     43.05820503	      0.00000000	      0.00000000
      1.85000000	     -1.20235617	      2.95221397	     -5.25947826	      0.73759955	      0.94014928	     -0.25202374	     -5.49547879	     -5.27038705	     -9.84334816	    -35.84602571	     13.34301713	      8.85512367	      0.00000000	     27.59336504	      1.21411133	    -15.27225507	    -19.66177669	      3.81842499	     -7.03182390	      0.00000000	     -2.51204259	     -5.19925529	      1.64097952	     15.35713494	     -8.33670290	     47.98579095	     32.40371883	     43.06954750	      0.00000000	      0.00000000	     -3.95010771	     -8.64673389	     43.47719532	     18.51134870	     43.06954750	      0.00000000	      0.00000000
      1.86000000	     -1.16855127	      3.35459537	     -5.24200915	      0.75092661	      0.94050524	     -0.25363211	     -4.66506927	     -6.30592378	     -9.97100803	    -38.47042276	     10.21619812	      9.00279744	      0.00000000	     27.50320483	      1.60227178	    -15.37753813	    -20.90643580	      2.40944581	     -7.47566880	      0.00000000	     -2.44137164	     -5.68559938	      1.45708956	     14.80992390	     -8.03052791	     47.91474916	     32.17584507	     43.08177642	      0.00000000	      0.00000000	     -3.99082616	     -8.60270005	     43.40287814	     18.46113840	     43.08177642	      0.00000000	      0.00000000
      1.87000000	     -1.20628058	      3.90313546	     -5.20710714	      0.76409638	      0.94090957	     -0.25537729	     -3.44347107	     -7.51680635	    -10.10199552	    -41.39090659	      6.95584493	      8.92328125	      0.00000000	     27.39964893	      2.63559074	    -13.56174284	    -21.74355799	      1.17693799	    -10.46301112	      0.00000000	     -2.28708350	     -6.32638636	      1.18482685	     14.26966103	     -7.37991565	     47.21532726	     31.11777156	     43.15543297	      0.00000000	      0.00000000	     -4.01714253	     -8.53461257	     43.02176063	     18.36403347	     43.15543297	      0.00000000	      0.00000000
      1.88000000	     -1.19976619	      4.29103776	     -5.09356953	      0.77708909	      0.94143184	     -0.25730272	     -2.12900168	     -8.36563735	     -9.93062859	    -44.27120097	      3.03412294	      7.60596971	      0.00000000	     27.43683991	      3.34261075	    -12.75571159	    -22.95650919	      0.99806459	    -11.55669837	      0.00000000	     -2.23787255	     -6.76552958	      0.92468027	     13.67552939	     -7.08951300	     47.13746821	     30.84793794	     43.17955294	      0.00000000	      0.00000000	     -3.97885377	     -8.50610788	     42.93175428	     18.40832451	     43.17955294	      0.00000000	      0.00000000
      1.89000000	     -1.02706436	      4.63495310	     -5.02373802	      0.79004683	      0.94242912	     -0.25951533	     -0.87659631	     -9.14044012	     -9.66092751	    -47.00569437	     -1.31795133	      5.78209892	      0.00000000	     26.88521057	      4.44676192	    -10.65291968	    -23.48090599	      0.31086081	    -14.49288692	      0.00000000	     -2.37709013	     -7.09225283	      0.59791076	     13.18159155	     -6.71446046	     46.83800692	     30.20893434	     43.23920951	      0.00000000	      0.00000000	     -3.83611722	     -8.42960884	     42.73986524	     18.55776878	     43.23920951	      0.00000000	      0.00000000
      1.90000000	     -0.96886793	      4.94625821	     -4.95055180	      0.80276005	      0.94322091	     -0.26165095	      0.60884526	     -9.77014223	     -9.15344431	    -49.73926261	     -5.50614504	      4.14010952	      0.00000000	     26.57541151	      5.15783624	     -9.92143670	    -24.39951141	      0.82583398	    -15.32345063	      0.00000000	     -2.38903734	     -7.36457050	      0.28326789	     12.63442814	     -6.46067833	     46.77589088	     29.87903829	     43.26785278	      0.00000000	      0.00000000	     -3.68150794	     -8.37329307	     42.66941390	     18.66852342	     43.26785278	      0.00000000	      0.00000000
